<svg id="brandLogo_2" xmlns="http://www.w3.org/2000/svg" width="106.368" height="28.653" viewBox="0 0 106.368 28.653">
  <path id="Path_4518" data-name="Path 4518" d="M97.655,52.2c-.83,1.437-.151,2.613,1.508,2.613h9.5c1.659,0,2.338-1.176,1.509-2.613l-4.75-8.224c-.828-1.437-2.187-1.437-3.017,0Z" transform="translate(-75.186 -33.148)" fill="#d6d6d6"/>
  <path id="Path_4519" data-name="Path 4519" d="M45.748,28.709h6.489L37.672,2.724A3.957,3.957,0,0,0,34.012.771H30.183L45.748,28.709ZM.947,5.747h13.63L.621,24.141A2.891,2.891,0,0,0,.29,27.185,2.892,2.892,0,0,0,2.916,28.76H17.857l2.87-4.923H7.381L21.371,5.353A2.892,2.892,0,0,0,21.7,2.309,2.89,2.89,0,0,0,19.077.734H.947ZM64.01,18.836H71.2A6.444,6.444,0,0,1,69.475,22.1a8.544,8.544,0,0,1-5.487,2.06h-.081a9.358,9.358,0,1,1,7.32-15.182L75.18,6.066a14.263,14.263,0,1,0-11.3,23h.1a13.422,13.422,0,0,0,8.876-3.415c2.324-2.249,3.5-5.367,3.5-9.268V13.928H64.01v4.908Zm29.285,0h7.194A6.446,6.446,0,0,1,98.76,22.1a8.545,8.545,0,0,1-5.488,2.06h-.081a9.358,9.358,0,1,1,7.32-15.182l3.953-2.909a14.263,14.263,0,1,0-11.3,23h.1a13.422,13.422,0,0,0,8.876-3.415c2.324-2.249,3.5-5.367,3.5-9.268V13.928H93.294v4.908h0Z" transform="translate(-0.001 -0.413)" fill="#d6d6d6"/>
  <g id="Group_1657" data-name="Group 1657" transform="translate(103.197 0)">
    <path id="Path_4520" data-name="Path 4520" d="M455.63,3.171a1.586,1.586,0,1,1,1.586-1.586,1.586,1.586,0,0,1-1.586,1.586Zm1.3-1.586a1.3,1.3,0,1,0-1.3,1.3,1.3,1.3,0,0,0,1.3-1.3Z" transform="translate(-454.044 0)" fill="#d6d6d6"/>
    <path id="Path_4521" data-name="Path 4521" d="M459.328,4.623l.368.542h-.388l-.322-.487h-.263v.487h-.333V3.654h.671c.361,0,.592.185.592.5A.469.469,0,0,1,459.328,4.623Zm-.279-.675h-.326v.443h.334c.169,0,.259-.09.259-.22C459.316,4.023,459.214,3.949,459.049,3.949Z" transform="translate(-457.402 -2.823)" fill="#d6d6d6"/>
  </g>
</svg>
