<svg id="brandLogo_5" xmlns="http://www.w3.org/2000/svg" width="73.241" height="48.299" viewBox="0 0 73.241 48.299">
  <path id="Path_4516" data-name="Path 4516" d="M34.79,43.055C20.318,44.39,5.233,42.287,3.12,30.977,2.087,25.4,4.63,19.489,8,15.814V13.851C1.93,19.175-1.36,25.911.535,33.867,2.955,44.073,15.9,49.852,35.659,47.933c7.822-.758,18.051-3.273,25.168-7.182V35.2c-6.459,3.848-17.139,7.027-26.037,7.852ZM72.916,13.719C69.483-3.041,36.941-4.1,15.964,8.665v1.41C36.917-.7,66.638-.631,69.344,14.808c.908,5.107-1.969,10.428-7.109,13.492v4.006c6.183-2.268,12.524-9.6,10.681-18.587Z" transform="translate(0 0)" fill="#d6d6d6"/>
  <path id="Path_4517" data-name="Path 4517" d="M131.967,87.712h-3.795v16.9c0,1.981.957,3.7,3.795,3.978ZM86.785,93.883h-3.8l0,11.042c0,1.988.961,3.708,3.8,3.978Zm-3.8-5.657h3.79v3.6h-3.79Zm26.527,20.5a4.052,4.052,0,0,1-4.371-4.238V89.829H108.9v4.053h2.833v3.038H108.9v7.337a1.168,1.168,0,0,0,1.3,1.335h1.532v3.135H109.51m6.922-6.246a3.125,3.125,0,0,0,3.334,3.34,4.25,4.25,0,0,0,3.455-1.415l2.324,2.214a7.431,7.431,0,0,1-5.807,2.367c-3.6,0-7.049-1.965-7.049-7.692,0-4.9,3.014-7.665,6.965-7.665,4.017,0,6.326,3.24,6.326,7.494v1.357h-9.548m3.058-5.74a2.888,2.888,0,0,0-2.7,1.558,3.888,3.888,0,0,0-.362,1.617h5.8C122.155,98.3,121.422,96.742,119.489,96.742ZM97,96.921c1.1,0,1.562.545,1.562,1.43v10.4h3.762V98.329A4.12,4.12,0,0,0,97.9,93.887l-7.772,0V108.75h3.764V96.921H97Zm39.049-6.189a1.51,1.51,0,1,1,1.516-1.51A1.5,1.5,0,0,1,136.05,90.732Zm0-2.768a1.255,1.255,0,1,0,1.262,1.258A1.269,1.269,0,0,0,136.05,87.964Zm.669,2.163h-.282a.064.064,0,0,1-.057-.038L136,89.44a.113.113,0,0,0-.053-.03h-.175v.647a.066.066,0,0,1-.064.07h-.254a.069.069,0,0,1-.064-.07V88.426c0-.1.032-.135.115-.147s.33-.022.463-.022c.471,0,.747.139.747.575v.032a.457.457,0,0,1-.34.482l.4.676a.122.122,0,0,1,.01.048A.054.054,0,0,1,136.72,90.127Zm-.365-1.294c0-.182-.113-.24-.356-.24h-.24v.517c.038,0,.209.008.24.008.243,0,.356-.081.356-.254Z" transform="translate(-72.311 -76.433)" fill="#d6d6d6"/>
</svg>
