<svg xmlns="http://www.w3.org/2000/svg" width="90.817" height="44.147" viewBox="0 0 90.817 44.147">
  <path id="brandLogo_3" d="M25.588,30.889a3.845,3.845,0,1,1-7.69,0V17.631a2.972,2.972,0,0,1,.8-2.252H13.523a3,3,0,0,1,.928,2.254V30.1a6.939,6.939,0,0,0,7.292,6.894A6.968,6.968,0,0,0,29.035,30.1V17.631a2.737,2.737,0,0,1,.928-2.254H24.792a3.325,3.325,0,0,1,.8,2.254ZM5.171,36.725a3.092,3.092,0,0,1-.8-2.256V25.983H8.883a3.056,3.056,0,0,1,1.989.8l-.133-2.915H4.375V17.5h6.1a2.529,2.529,0,0,1,1.989.8l-.133-2.917H0a3,3,0,0,1,.928,2.254V34.471A3.026,3.026,0,0,1,0,36.727H5.171Zm25.19,7.422c.243-.172,2.873-3.131,2.917-5.171V17.631a3.387,3.387,0,0,0-.928-2.254H37.52a3.078,3.078,0,0,0-.928,2.254V36.059C36.614,40.547,34.548,44.021,30.361,44.147Zm13.656-9.676a3.168,3.168,0,0,0,.928,2.256H39.774A3.705,3.705,0,0,0,40.7,34.34V17.631a3.44,3.44,0,0,0-.928-2.252h5.171a3.035,3.035,0,0,0-.928,2.254Zm6.894-19.091h5.171M38.448,2.254A5.341,5.341,0,0,1,42.823,0a5.776,5.776,0,0,1,5.7,5.7,5.761,5.761,0,0,1-5.7,5.7,6.806,6.806,0,0,1-3.314-1.061,12.523,12.523,0,0,1-2.652-2.784A2.864,2.864,0,0,0,34.6,6.5a3.049,3.049,0,0,0-3.049,3.049A3.145,3.145,0,0,0,34.6,12.6a5.1,5.1,0,0,0,3.447-2.121V12.6A4.547,4.547,0,0,1,34.6,14.053,4.462,4.462,0,0,1,30.1,9.546,4.568,4.568,0,0,1,34.6,4.905,4.479,4.479,0,0,1,37.918,6.5a9.938,9.938,0,0,0,2.652,2.652A4.09,4.09,0,0,0,46.933,5.7a4.059,4.059,0,0,0-4.11-4.11c-1.953,0-3.485,1.111-4.64,3.449l.265-2.789ZM86.575,30.889a3.853,3.853,0,0,1-3.845,3.845,3.918,3.918,0,0,1-3.977-3.845V17.631a3.119,3.119,0,0,1,.928-2.254H74.51a3.344,3.344,0,0,1,.928,2.254V30.1c-.033,4.044,3.222,6.923,7.292,6.894A6.827,6.827,0,0,0,89.889,30.1V17.631a3.481,3.481,0,0,1,.928-2.254H85.646a3.013,3.013,0,0,1,.928,2.254V30.889ZM46.005,18.429a2.97,2.97,0,0,1,2.917-.928h2.917V34.338a3.318,3.318,0,0,1-.928,2.386h5.171a3.534,3.534,0,0,1-.928-2.256V17.5h2.784c.886-.055,1.637-.148,2.121.928l.928-3.049H46.933l-.928,3.049m25.853,0V15.379c-1.719-.471-9.42-1.737-10.872,4.243A6.084,6.084,0,0,0,64.3,25.986c1.8.851,4.148,2.165,4.905,2.652,1.215.734,1.436,1.869,1.061,3.314-.362,1.6-4.26,5.073-9.281.663l1.061,3.712c3.116,1.218,8.14.747,10.474-1.856,2.267-2.563,1.891-6.366-.53-7.955-1.56-1.065-5.513-3.248-6.231-3.58-.6-.325-2.8-2.862-.4-5.171,2.371-2.276,5.763-.93,6.5.663Z" fill="#d6d6d6"/>
</svg>
