<svg xmlns="http://www.w3.org/2000/svg" width="166.091" height="45.437" viewBox="0 0 166.091 45.437">
  <path id="brandLogo_1" d="M156.523,2.816h-.785v1.5h.785a1.89,1.89,0,0,0,.932-.166.615.615,0,0,0,.268-.564A.652.652,0,0,0,157.441,3a1.765,1.765,0,0,0-.917-.181ZM15.087,43.094V34.654h1.467v3.028a3.967,3.967,0,0,1,2.595-.841,4.721,4.721,0,0,1,1.671.269,1.988,1.988,0,0,1,1.016.739,2.538,2.538,0,0,1,.306,1.37v3.876h-1.47V39.218a1.316,1.316,0,0,0-.476-1.13,2.232,2.232,0,0,0-1.35-.356,3.17,3.17,0,0,0-1.228.24,1.629,1.629,0,0,0-.818.648,2.185,2.185,0,0,0-.245,1.128v3.345H15.087Zm12.5-.928.212.916a7.723,7.723,0,0,1-1.108.093A3.4,3.4,0,0,1,25.444,43a1.238,1.238,0,0,1-.618-.469,2.678,2.678,0,0,1-.181-1.223V37.786H23.568v-.806h1.077V35.465l1.461-.621v2.136h1.476v.806H26.107v3.575a1.337,1.337,0,0,0,.075.57.541.541,0,0,0,.254.2,1.332,1.332,0,0,0,.5.075c.165,0,.379-.014.646-.041Zm4.641,0,.212.916a7.723,7.723,0,0,1-1.108.093A3.4,3.4,0,0,1,30.085,43a1.241,1.241,0,0,1-.618-.469,2.678,2.678,0,0,1-.181-1.223V37.786H28.209v-.806h1.078V35.465l1.461-.621v2.136h1.476v.806H30.748v3.575a1.337,1.337,0,0,0,.075.57.541.541,0,0,0,.253.2,1.333,1.333,0,0,0,.5.075c.165,0,.379-.014.647-.041Zm1.437,3.27V36.98H35v.794a3.126,3.126,0,0,1,1.069-.7,3.946,3.946,0,0,1,1.442-.234,4.523,4.523,0,0,1,1.957.4,2.846,2.846,0,0,1,1.281,1.138,3.209,3.209,0,0,1-.044,3.3,3.033,3.033,0,0,1-1.386,1.151,4.724,4.724,0,0,1-1.913.4,3.733,3.733,0,0,1-1.317-.218,3.011,3.011,0,0,1-.958-.552v2.975H33.66Zm1.328-5.365a2.147,2.147,0,0,0,.677,1.745,2.483,2.483,0,0,0,1.64.564,2.518,2.518,0,0,0,1.676-.586,2.227,2.227,0,0,0,.7-1.81A2.177,2.177,0,0,0,39,38.235a2.426,2.426,0,0,0-1.626-.582,2.481,2.481,0,0,0-1.662.619,2.241,2.241,0,0,0-.72,1.8Zm8.369-1.912V36.98H45.03V38.16Zm0,4.935V41.913H45.03v1.181Zm3.132.143,3.466-8.727h1.175l-3.458,8.727Zm4.641,0L54.6,34.51h1.175l-3.458,8.727Zm7.342-.143L55.822,36.98H57.34l1.378,3.53.512,1.313c.023-.067.173-.488.448-1.262l1.378-3.581h1.509l1.3,3.545L64.3,41.7l.5-1.181,1.484-3.533H67.7L65,43.094H63.473l-1.378-3.661-.337-1.044-1.751,4.7H58.473Zm12.064,0L67.886,36.98H69.4l1.378,3.53.512,1.313c.022-.067.173-.488.448-1.262L73.12,36.98h1.509l1.3,3.545.434,1.17.5-1.181L78.34,36.98h1.429l-2.71,6.114H75.536l-1.378-3.661-.337-1.044-1.751,4.7H70.537Zm12.063,0L79.949,36.98h1.518l1.378,3.53.512,1.313c.022-.067.173-.488.448-1.262l1.379-3.581h1.509l1.3,3.545.434,1.17.5-1.181L90.4,36.98h1.429l-2.71,6.114H87.6l-1.378-3.661-.337-1.044-1.751,4.7H82.6Zm9.959,0V41.913h1.674v1.181Zm9.878-.755a5.758,5.758,0,0,1-3.191.893,4.066,4.066,0,0,1-2.194-.492,1.46,1.46,0,0,1-.766-1.258,1.294,1.294,0,0,1,.29-.821,2.071,2.071,0,0,1,.757-.6,4.45,4.45,0,0,1,1.058-.34c.286-.053.721-.106,1.3-.155a18.294,18.294,0,0,0,2.62-.358c.005-.142.008-.232.008-.269a.963.963,0,0,0-.418-.892,3.178,3.178,0,0,0-1.67-.352,3.479,3.479,0,0,0-1.531.255,1.572,1.572,0,0,0-.73.908l-1.434-.139a2.243,2.243,0,0,1,.643-1.05,3.049,3.049,0,0,1,1.3-.617,8,8,0,0,1,1.965-.217,7.243,7.243,0,0,1,1.8.185,2.645,2.645,0,0,1,1.021.464,1.49,1.49,0,0,1,.457.705,4.229,4.229,0,0,1,.073.955v1.381a10.218,10.218,0,0,0,.094,1.828,1.911,1.911,0,0,0,.37.735h-1.534a1.737,1.737,0,0,1-.291-.755Zm-.122-2.315a14.53,14.53,0,0,1-2.4.394,7.454,7.454,0,0,0-1.281.206,1.255,1.255,0,0,0-.579.338.709.709,0,0,0-.206.492.81.81,0,0,0,.445.692,2.5,2.5,0,0,0,1.3.275,4.062,4.062,0,0,0,1.509-.262,2.046,2.046,0,0,0,.972-.717,1.856,1.856,0,0,0,.237-1.036v-.382h0Zm3.174,1.244,1.451-.161a1.364,1.364,0,0,0,.682.946,3.1,3.1,0,0,0,1.562.328,3.032,3.032,0,0,0,1.5-.291.825.825,0,0,0,.49-.682.619.619,0,0,0-.434-.554,8.236,8.236,0,0,0-1.5-.35A17.84,17.84,0,0,1,107,40a2.114,2.114,0,0,1-.947-.582A1.2,1.2,0,0,1,106,37.847a2.022,2.022,0,0,1,.721-.58,3.752,3.752,0,0,1,.933-.3,6.178,6.178,0,0,1,1.27-.124,6.971,6.971,0,0,1,1.79.208,2.6,2.6,0,0,1,1.138.56,1.874,1.874,0,0,1,.5.947l-1.434.139a1.089,1.089,0,0,0-.568-.737,2.715,2.715,0,0,0-1.325-.266,3.214,3.214,0,0,0-1.442.236c-.289.157-.434.342-.434.552a.48.48,0,0,0,.181.364,1.39,1.39,0,0,0,.562.277c.148.037.579.126,1.3.263q1.557.295,2.171.482a2.232,2.232,0,0,1,.969.544,1.214,1.214,0,0,1,.35.886,1.423,1.423,0,0,1-.428.977,2.8,2.8,0,0,1-1.236.707,6.146,6.146,0,0,1-1.826.25,5.376,5.376,0,0,1-2.576-.5,2.234,2.234,0,0,1-1.129-1.467Zm14.617,1.826v-.9a3.669,3.669,0,0,1-2.751,1.036,4.8,4.8,0,0,1-1.431-.207,2.442,2.442,0,0,1-.986-.52,1.69,1.69,0,0,1-.454-.769,3.848,3.848,0,0,1-.089-.969V36.98h1.467v3.39a4.411,4.411,0,0,0,.089,1.095,1.151,1.151,0,0,0,.587.643,2.407,2.407,0,0,0,1.111.232,3.226,3.226,0,0,0,1.239-.237,1.61,1.61,0,0,0,.818-.651,2.39,2.39,0,0,0,.242-1.195V36.98h1.468v6.114h-1.312Zm3.026-1.826,1.45-.161a1.366,1.366,0,0,0,.682.946,3.1,3.1,0,0,0,1.562.328,3.032,3.032,0,0,0,1.5-.291.825.825,0,0,0,.49-.682.619.619,0,0,0-.434-.554,8.248,8.248,0,0,0-1.5-.35,17.868,17.868,0,0,1-2.238-.5,2.113,2.113,0,0,1-.946-.582,1.2,1.2,0,0,1-.056-1.577,2.022,2.022,0,0,1,.721-.58,3.76,3.76,0,0,1,.933-.3,6.178,6.178,0,0,1,1.27-.124,6.973,6.973,0,0,1,1.79.208,2.6,2.6,0,0,1,1.138.56,1.874,1.874,0,0,1,.5.947l-1.434.139a1.089,1.089,0,0,0-.568-.737,2.717,2.717,0,0,0-1.325-.266,3.214,3.214,0,0,0-1.442.236c-.289.157-.434.342-.434.552a.481.481,0,0,0,.181.364,1.392,1.392,0,0,0,.562.277c.148.037.579.126,1.3.263q1.557.295,2.171.482a2.231,2.231,0,0,1,.969.544,1.214,1.214,0,0,1,.351.886,1.424,1.424,0,0,1-.429.977,2.8,2.8,0,0,1-1.236.707,6.146,6.146,0,0,1-1.826.25,5.374,5.374,0,0,1-2.575-.5,2.235,2.235,0,0,1-1.129-1.467Zm9.355,1.826V41.913h1.673v1.181Zm9.878-2.24,1.442.133a2.511,2.511,0,0,1-1.211,1.649,4.507,4.507,0,0,1-2.394.6,4.6,4.6,0,0,1-2.856-.82,2.775,2.775,0,0,1-1.083-2.352,3.206,3.206,0,0,1,.465-1.733,2.818,2.818,0,0,1,1.417-1.115,5.631,5.631,0,0,1,2.066-.371,4.669,4.669,0,0,1,2.308.505,2.294,2.294,0,0,1,1.153,1.431l-1.428.155a1.646,1.646,0,0,0-.721-.928,2.4,2.4,0,0,0-1.253-.31,2.773,2.773,0,0,0-1.8.562,2.147,2.147,0,0,0-.693,1.774,2.206,2.206,0,0,0,.671,1.793,2.636,2.636,0,0,0,1.746.558,2.6,2.6,0,0,0,1.442-.376,1.687,1.687,0,0,0,.735-1.151Zm2.153-.818a2.74,2.74,0,0,1,1.339-2.516,5.151,5.151,0,0,1,2.723-.68,4.825,4.825,0,0,1,2.921.827,2.662,2.662,0,0,1,1.133,2.282,3.058,3.058,0,0,1-.5,1.857,3.215,3.215,0,0,1-1.459,1.052,5.716,5.716,0,0,1-2.094.373,4.844,4.844,0,0,1-2.94-.824,2.758,2.758,0,0,1-1.122-2.372Zm1.509,0a2.119,2.119,0,0,0,.727,1.759,3.127,3.127,0,0,0,3.647,0,2.171,2.171,0,0,0,.724-1.79,2.069,2.069,0,0,0-.729-1.72,3.137,3.137,0,0,0-3.642,0A2.11,2.11,0,0,0,146.026,40.037Zm8.33,3.058V36.98h1.312v.857a2.9,2.9,0,0,1,1.086-.721,4.088,4.088,0,0,1,1.542-.275,3.785,3.785,0,0,1,1.576.283,1.713,1.713,0,0,1,.868.788,3.55,3.55,0,0,1,2.676-1.071,3.33,3.33,0,0,1,1.982.505,1.788,1.788,0,0,1,.693,1.55v4.2h-1.459V39.243a2.063,2.063,0,0,0-.142-.9,1.05,1.05,0,0,0-.518-.44,2.186,2.186,0,0,0-.883-.167,2.552,2.552,0,0,0-1.518.43,1.569,1.569,0,0,0-.6,1.372v3.553H159.5V39.123a1.376,1.376,0,0,0-.359-1.038,1.654,1.654,0,0,0-1.175-.346,2.8,2.8,0,0,0-1.144.232,1.507,1.507,0,0,0-.763.672,2.763,2.763,0,0,0-.237,1.279v3.172h-1.467Zm-8.864-29.98c9.3,2.744,9.114,18.221-3.394,18.188l-28.663-.074.029-8.4,29.244.191c2.113.014,1.872-3.192,0-3.378-7.82-.777-13.786-1.094-21.606-1.872a8.511,8.511,0,0,1-7.307-6.628l31.7,1.976ZM76.531,0h8.4V8.149h-8.4Zm8.4,9.34V20.385c0,1.532.913,2.79,2.031,2.79h15.535c1.117,0,2.031-1.256,2.031-2.79V10.561l8.32.519v12c0,3.931-3.859,8.226-8,8.226H84.526c-4.138,0-7.995-4.054-7.995-7.991V8.817l8.4.523Zm19.6-1.191V0h8.32V8.149h-8.32ZM10.532,31.109,24.725,9.571l-4.166-.348L14.783,8.74,0,31.1ZM25.661,8.149h12L37.711,0,23.671.005A5.446,5.446,0,0,0,18.8,2.658l-3.63,5.491H25.661Zm3.288,1.775V31.3h8.583l.118-20.652-2.355-.2-6.345-.531ZM75.678,18.2c2.394,5.494-.309,13.129-9.1,13.107l-28.663-.074.028-8.4,29.244.191c2.113.014,1.872-3.192,0-3.378-7.82-.777-13.786-1.094-21.606-1.872a8.514,8.514,0,0,1-7.389-7.07l31.3,2.617.139.013.085.01.082.01.016,0,.088.012.017,0,.108.017h.008l.093.016h.007l.1.02.045.008.015,0,.128.029.007,0,.119.029h0l.059.015q.115.031.228.065l.055.017.07.023a5.986,5.986,0,0,1,.991.43h0q.145.079.285.165l.067.041.022.014.05.032q.156.1.3.209c.055.04.109.081.162.123l.048.037q.184.145.36.3l.007.006.092.084.01.009.081.077.007.007q.15.144.292.3.1.107.2.218L75.678,18.2ZM74.51,16.352l.1.14,0,0c.048.066.095.132.142.2l-.248-.343Zm.841,1.269c.041.069.082.139.122.209l.006.01.01.018c.064.112.127.225.189.339l-.327-.576ZM45.516,0H75.187V8.149H38.134V7.05C38.134,4.65,42.455,0,45.516,0Zm75.519,0h29.671V8.149H113.652V7.05c0-2.4,4.322-7.049,7.382-7.049Zm35.608,2.389a2.4,2.4,0,0,1,1.308.283.976.976,0,0,1,.423.875,1.066,1.066,0,0,1-.268.739,1.146,1.146,0,0,1-.72.363l.934,1.932h-.72l-.883-1.842h-.978V6.58h-.63V2.389Zm3.133,2.169a3.311,3.311,0,0,0-.239-1.254,3.1,3.1,0,0,0-.684-1.04,3.292,3.292,0,0,0-3.544-.715,3.192,3.192,0,0,0-1.035.695,3.458,3.458,0,0,0-.722,1.073,3.162,3.162,0,0,0-.005,2.457,3.3,3.3,0,0,0,.708,1.051,3.251,3.251,0,0,0,1.053.707,3.13,3.13,0,0,0,1.227.246,3.239,3.239,0,0,0,1.244-.248,3.384,3.384,0,0,0,1.074-.715A3,3,0,0,0,159.54,5.8a3.219,3.219,0,0,0,.236-1.242ZM156.534.9a3.706,3.706,0,0,1,1.417.273,3.643,3.643,0,0,1,1.95,1.964,3.652,3.652,0,0,1,.271,1.4,3.64,3.64,0,0,1-.266,1.4,3.394,3.394,0,0,1-.781,1.156,3.742,3.742,0,0,1-1.2.807,3.567,3.567,0,0,1-3.952-.8,3.59,3.59,0,0,1-.786-3.949,3.737,3.737,0,0,1,.807-1.2,3.431,3.431,0,0,1,1.15-.78A3.631,3.631,0,0,1,156.534.9Z" fill="#d6d6d6" fill-rule="evenodd"/>
</svg>
