<svg id="brandLogo_4" xmlns="http://www.w3.org/2000/svg" width="206.472" height="36.856" viewBox="0 0 206.472 36.856">
  <path id="Path_4515" data-name="Path 4515" d="M16.841,2.932Q26.787,1.41,36.759.04q.006,8.734,0,17.464c-6.639.025-13.279.126-19.923.147Q16.834,10.288,16.841,2.932ZM0,5.282c4.993-.77,10.008-1.436,15.022-2.063q.006,7.244.008,14.483c-5.01,0-10.021.072-15.031.059Zm79.328.813c1.314-.838,2.993.909,2.227,2.223a1.6,1.6,0,0,1-2.492.623A1.709,1.709,0,0,1,79.328,6.094Zm34.4-.173q1.263-.006,2.526,0V29.494h-2.517c0-.855-.013-1.71-.072-2.564a6.411,6.411,0,0,1-9.486,1.57c-1.991-1.714-2.6-4.5-2.492-7.023a9,9,0,0,1,2.9-6.951c2.648-2.181,7.343-2.055,9.157,1.149-.034-3.254,0-6.5-.017-9.755m-5.44,9.321a4.92,4.92,0,0,0-3.768,4.071,8.616,8.616,0,0,0,1.04,6.913,4.457,4.457,0,0,0,6.7.16,6.394,6.394,0,0,0,1.474-4.48c.012-1.68.156-3.574-.96-4.976A4.438,4.438,0,0,0,108.29,15.243Zm80.049-8.42c.223-.029.669-.093.888-.122q.019,11.393,0,22.794h-2.492c.016-6.324-.043-12.652.029-18.975a17.427,17.427,0,0,1-5.166,2.56q.018-1.263.029-2.526a23.677,23.677,0,0,0,6.708-3.73Zm10.1-.008a6.054,6.054,0,0,1,5.92,2.295c1.848,2.61,2.021,5.957,2.114,9.043-.063,3.259-.421,6.791-2.5,9.448a6.289,6.289,0,0,1-8.408,1.255c-2.084-1.5-2.9-4.126-3.271-6.555a23.72,23.72,0,0,1,.871-10.837,6.653,6.653,0,0,1,5.275-4.648m-.387,2.261c-2.244.909-2.888,3.562-3.2,5.717a26.431,26.431,0,0,0,.312,9.064,5.111,5.111,0,0,0,2.555,3.642,3.636,3.636,0,0,0,4.691-1.5c1.377-2.378,1.41-5.233,1.427-7.906-.055-2.606-.16-5.41-1.6-7.675A3.486,3.486,0,0,0,198.051,9.075ZM47.975,7.176c.947,0,1.895,0,2.846.017,1.478,5.339,2.935,10.685,4.416,16.028a22.415,22.415,0,0,1,.69,3.428c1.541-6.555,3.646-12.972,5.414-19.472.821,0,1.642,0,2.463.008,1.3,4.627,2.517,9.275,3.806,13.906a37.689,37.689,0,0,1,1.285,5.57c1.394-6.547,3.38-12.963,4.959-19.467.935-.013,1.869-.013,2.8-.013-2.038,7.448-4.16,14.875-6.222,22.314H67.4c-1.495-5.342-2.976-10.69-4.488-16.024a13.683,13.683,0,0,1-.438-2.648,22.272,22.272,0,0,1-.426,2.3c-1.528,5.44-3.078,10.87-4.564,16.319-1.01.055-2.021.059-3.031.051Q51.2,18.342,47.975,7.176Zm40.043,8.9a6.051,6.051,0,0,1,7.528-2.564c2.16.842,2.964,3.342,3.031,5.473.117,3.5.021,7.01.051,10.513q-1.263,0-2.526,0c-.038-3.364.088-6.736-.059-10.1-.067-1.667-.775-3.671-2.589-4.1-2.648-.8-5.292,1.587-5.377,4.206-.076,3.33,0,6.665-.029,9.995H85.521q.007-8,0-16h2.531C88.048,14.355,88.043,15.213,88.018,16.072ZM126.082,13.1c2.252-.2,4.749.156,6.442,1.785,1.911,1.764,2.48,4.5,2.375,7.01A8.6,8.6,0,0,1,132.385,28c-3.444,3.132-9.839,2.446-12.025-1.861-1.717-3.608-1.373-8.6,1.764-11.342a9.007,9.007,0,0,1,3.958-1.7m-.455,2.29c-3.71,1.141-4.337,5.987-3.179,9.174a5.164,5.164,0,0,0,7.1,2.762c1.747-.8,2.543-2.775,2.711-4.581.189-2.109.021-4.5-1.469-6.147a5.042,5.042,0,0,0-5.161-1.208Zm38.763-2.3a10.769,10.769,0,0,1,4.674.623c.412.783.093,1.81.189,2.69-1.772-1.107-4.215-1.815-6.138-.686a2.168,2.168,0,0,0-.1,3.621c1.84,1.191,4.177,1.5,5.81,3.036a4.222,4.222,0,0,1-.745,6.37,9.154,9.154,0,0,1-8.627.227c0-.943,0-1.886-.021-2.829,1.911,1.457,4.6,2.265,6.884,1.229a2.179,2.179,0,0,0,.227-3.583c-1.84-1.356-4.361-1.57-6-3.263a4.162,4.162,0,0,1,.476-5.991,7.855,7.855,0,0,1,3.363-1.444ZM78.785,13.5q1.263-.006,2.526,0v16H78.785Q78.785,21.493,78.785,13.5Zm57.166,0h2.636c1.044,3.81,2.055,7.629,3.12,11.435a11.746,11.746,0,0,1,.37,2.2c1.191-4.589,2.7-9.094,4.05-13.637l2.3.013c1.158,4.547,2.6,9.027,3.557,13.62.99-4.568,2.4-9.035,3.495-13.578.846-.042,1.692-.055,2.543-.063-1.6,5.335-3.141,10.685-4.753,16.011h-2.619c-1.137-4.336-2.61-8.589-3.532-12.972-1.1,4.379-2.623,8.639-3.878,12.972h-2.53c-1.583-5.334-3.2-10.656-4.762-16ZM0,19.281c5.006-.017,10.012.063,15.018.055,0,4.842.013,9.683,0,14.525-5-.741-10.012-1.389-15.022-2.067Zm16.811.194H36.759q.013,8.709,0,17.422C30.128,35.9,23.484,34.98,16.841,34.08q-.013-7.3-.029-14.606Z" transform="translate(0 -0.04)" fill="#d6d6d6"/>
</svg>
