<svg xmlns="http://www.w3.org/2000/svg" width="85.321" height="131.274" viewBox="0 0 85.321 131.274">
  <g id="Application-services" transform="translate(1 1)">
    <path id="Path_4835" data-name="Path 4835" d="M71.959,129.274a11.375,11.375,0,0,0,11.362-11.362V11.362A11.375,11.375,0,0,0,71.959,0h-60.6A11.375,11.375,0,0,0,0,11.362v106.55a11.375,11.375,0,0,0,11.362,11.362ZM7.575,11.362a3.792,3.792,0,0,1,3.787-3.787h60.6a3.792,3.792,0,0,1,3.787,3.787v3.787H7.575Zm0,11.362H75.746V106.55H7.575Zm0,95.188v-3.787H75.746v3.787a3.792,3.792,0,0,1-3.787,3.787h-60.6A3.792,3.792,0,0,1,7.575,117.912Zm0,0" fill="#fff" stroke="#3a404a" stroke-width="2"/>
    <path id="Path_4836" data-name="Path 4836" d="M86.511,121a26.511,26.511,0,1,0,26.511,26.511A26.541,26.541,0,0,0,86.511,121Zm0,45.448a18.812,18.812,0,0,1-9.443-2.533,11.363,11.363,0,0,1,18.885,0A18.812,18.812,0,0,1,86.511,166.448Zm-3.787-18.937a3.787,3.787,0,1,1,3.787,3.787A3.792,3.792,0,0,1,82.724,147.511Zm18.931,11.356a19.006,19.006,0,0,0-5.7-5.039,11.362,11.362,0,1,0-18.877,0,19.008,19.008,0,0,0-5.7,5.039,18.937,18.937,0,1,1,30.287,0Zm0,0" transform="translate(-44.851 -90.449)" fill="#fff" stroke="#3a404a" stroke-width="2"/>
    <path id="Path_4837" data-name="Path 4837" d="M157.575,364.787A3.787,3.787,0,1,1,153.787,361,3.787,3.787,0,0,1,157.575,364.787Zm0,0" transform="translate(-112.127 -269.852)" fill="#fff" stroke="#3a404a" stroke-width="2"/>
    <path id="Path_4838" data-name="Path 4838" d="M217.575,364.787A3.787,3.787,0,1,1,213.787,361,3.787,3.787,0,0,1,217.575,364.787Zm0,0" transform="translate(-156.977 -269.852)" fill="#fff" stroke="#3a404a" stroke-width="2"/>
    <path id="Path_4839" data-name="Path 4839" d="M97.575,364.787A3.787,3.787,0,1,1,93.787,361,3.787,3.787,0,0,1,97.575,364.787Zm0,0" transform="translate(-67.276 -269.852)" fill="#fff" stroke="#3a404a" stroke-width="2"/>
  </g>
</svg>
