<svg xmlns="http://www.w3.org/2000/svg" width="460.001" height="511.945" viewBox="0 0 460.001 511.945">
  <g id="XMLID_1300_" transform="translate(-25.973)" opacity="0.05">
    <g id="XMLID_80_">
      <path id="XMLID_89_" d="M470.9,192.153l-32.924-32.938V93.945a40.045,40.045,0,0,0-40-40h-65.2l-50.973-51a10,10,0,0,0-7.07-2.931L237.476,0h0A10,10,0,0,0,230.4,2.927l-51.05,51.019H113.972a40.045,40.045,0,0,0-40,40V159.32l-32.9,32.826a51.174,51.174,0,0,0-15.1,36.434V460.435a51.319,51.319,0,0,0,14.476,35.747c.193.231.394.458.611.676s.442.415.672.607a51.32,51.32,0,0,0,35.751,14.48h133.49a10,10,0,0,0,0-20H77.482a31.3,31.3,0,0,1-14.05-3.318L181.3,370.758l38.374,38.351a51.168,51.168,0,0,0,36.411,15.076h.016a51.17,51.17,0,0,0,36.418-15.1l38.214-38.238L448.512,488.627a31.312,31.312,0,0,1-14.05,3.318H300.973a10,10,0,0,0,0,20H434.464a51.321,51.321,0,0,0,35.749-14.478c.231-.193.458-.393.674-.609s.418-.445.612-.677a51.322,51.322,0,0,0,14.475-35.746V228.565A51.179,51.179,0,0,0,470.9,192.153Zm-32.923-4.648,18.777,18.786a31.752,31.752,0,0,1,4.5,5.673l-23.275,23.29ZM241.612,20l28.969.01,33.914,33.935H207.646ZM55.2,206.3l18.771-18.728v47.65L50.7,211.967A31.693,31.693,0,0,1,55.2,206.3ZM49.29,474.485a31.307,31.307,0,0,1-3.317-14.049V235.513L167.155,356.62ZM278.375,394.95a31.305,31.305,0,0,1-22.278,9.235h-.009a31.3,31.3,0,0,1-22.274-9.223L93.973,255.208V93.945a20.023,20.023,0,0,1,20-20h284a20.023,20.023,0,0,1,20,20v68.134a10.073,10.073,0,0,0,0,2.392v90.794Zm187.6,65.486a31.307,31.307,0,0,1-3.317,14.049L344.874,356.7l121.1-121.173Z"/>
      <path id="XMLID_135_" d="M255.973,491.942a10,10,0,1,0,7.07,2.93,10.076,10.076,0,0,0-7.07-2.93Z"/>
      <path id="XMLID_136_" d="M255.973,115.883A94.523,94.523,0,0,0,161.556,210.3a95.818,95.818,0,0,0,95.709,95.709h60.779a10,10,0,0,0,0-20H257.265A75.8,75.8,0,0,1,181.556,210.3a74.417,74.417,0,0,1,148.834,0v20.493a14.284,14.284,0,0,1-28.568,0V207.645a49.709,49.709,0,0,0-49.653-49.653,52.211,52.211,0,0,0,0,104.423h15.908a10,10,0,0,0,0-20H252.169a32.212,32.212,0,0,1,0-64.423,29.687,29.687,0,0,1,29.653,29.653v23.147a34.284,34.284,0,0,0,68.568,0V210.3a94.524,94.524,0,0,0-94.417-94.416Z"/>
    </g>
  </g>
</svg>
