<svg xmlns="http://www.w3.org/2000/svg" width="123.677" height="123.677" viewBox="0 0 123.677 123.677">
  <g id="infrastructure" transform="translate(-15.999 -16)">
    <path id="Path_4849" data-name="Path 4849" d="M133.556,51.245A24.732,24.732,0,0,0,119.8,43.282,37.109,37.109,0,0,0,52.82,33.015,14.425,14.425,0,0,0,34.968,43.477a24.737,24.737,0,0,0-13.315,39.8l3.178-2.625a20.614,20.614,0,0,1,15.9-33.729c.626,0,1.257.028,1.876.084l.37-4.106c-.741-.067-1.5-.1-2.246-.1q-.61,0-1.214.03a10.3,10.3,0,0,1,11.187-6.067c-.518,1.057-.993,2.138-1.412,3.248l3.857,1.455A32.986,32.986,0,0,1,117,53.1h4.123a37.225,37.225,0,0,0-.386-5.345,20.715,20.715,0,0,1,14.815,19.774,20.479,20.479,0,0,1-3.747,11.853l3.371,2.374a24.739,24.739,0,0,0-1.621-30.514Z" transform="translate(0)" fill="#fff"/>
    <circle id="Ellipse_26" data-name="Ellipse 26" cx="2" cy="2" r="2" transform="translate(32.793 102.794)" fill="#fff"/>
    <circle id="Ellipse_27" data-name="Ellipse 27" cx="2" cy="2" r="2" transform="translate(38.793 102.794)" fill="#fff"/>
    <ellipse id="Ellipse_28" data-name="Ellipse 28" cx="2.5" cy="2" rx="2.5" ry="2" transform="translate(44.793 102.794)" fill="#fff"/>
    <rect id="Rectangle_395" data-name="Rectangle 395" width="11" height="4" transform="translate(53.793 102.794)" fill="#fff"/>
    <circle id="Ellipse_29" data-name="Ellipse 29" cx="2" cy="2" r="2" transform="translate(32.793 85.794)" fill="#fff"/>
    <circle id="Ellipse_30" data-name="Ellipse 30" cx="2" cy="2" r="2" transform="translate(38.793 85.794)" fill="#fff"/>
    <ellipse id="Ellipse_31" data-name="Ellipse 31" cx="2.5" cy="2" rx="2.5" ry="2" transform="translate(44.793 85.794)" fill="#fff"/>
    <rect id="Rectangle_396" data-name="Rectangle 396" width="11" height="4" transform="translate(53.793 85.794)" fill="#fff"/>
    <path id="Path_4850" data-name="Path 4850" d="M95.164,192H64.245A8.255,8.255,0,0,0,56,200.245v4.123a8.226,8.226,0,0,0,2.8,6.184,8.226,8.226,0,0,0-2.8,6.183v4.123a8.226,8.226,0,0,0,2.8,6.185,8.226,8.226,0,0,0-2.8,6.183v4.123a8.255,8.255,0,0,0,8.245,8.245H95.164a8.255,8.255,0,0,0,8.245-8.245v-4.123a8.226,8.226,0,0,0-2.8-6.184,8.226,8.226,0,0,0,2.8-6.183v-4.123a8.226,8.226,0,0,0-2.8-6.184,8.226,8.226,0,0,0,2.8-6.183v-4.123A8.255,8.255,0,0,0,95.164,192Zm4.123,41.226v4.123a4.127,4.127,0,0,1-4.123,4.123H64.245a4.127,4.127,0,0,1-4.123-4.123v-4.123a4.127,4.127,0,0,1,4.123-4.123H95.164a4.127,4.127,0,0,1,4.123,4.123Zm0-16.49v4.123a4.127,4.127,0,0,1-4.123,4.123H64.245a4.127,4.127,0,0,1-4.123-4.123v-4.123a4.127,4.127,0,0,1,4.123-4.123H95.164A4.127,4.127,0,0,1,99.287,216.735ZM64.245,208.49a4.127,4.127,0,0,1-4.123-4.123v-4.123a4.127,4.127,0,0,1,4.123-4.123H95.164a4.127,4.127,0,0,1,4.123,4.123v4.123a4.127,4.127,0,0,1-4.123,4.123Z" transform="translate(-29.695 -130.652)" fill="#fff"/>
    <ellipse id="Ellipse_32" data-name="Ellipse 32" cx="2" cy="2.5" rx="2" ry="2.5" transform="translate(32.793 68.794)" fill="#fff"/>
    <ellipse id="Ellipse_33" data-name="Ellipse 33" cx="2" cy="2.5" rx="2" ry="2.5" transform="translate(38.793 68.794)" fill="#fff"/>
    <circle id="Ellipse_34" data-name="Ellipse 34" cx="2.5" cy="2.5" r="2.5" transform="translate(44.793 68.794)" fill="#fff"/>
    <rect id="Rectangle_397" data-name="Rectangle 397" width="11" height="5" transform="translate(53.793 68.794)" fill="#fff"/>
    <path id="Path_4851" data-name="Path 4851" d="M352.735,232h-16.49A8.255,8.255,0,0,0,328,240.245v12.368a8.255,8.255,0,0,0,8.245,8.245h16.49a8.255,8.255,0,0,0,8.245-8.245V240.245A8.255,8.255,0,0,0,352.735,232Zm4.123,8.245v1.109a8.192,8.192,0,0,0-4.123-1.109h-4.423a4.1,4.1,0,0,1-3.687-2.279l-.7-1.409c-.074-.149-.155-.293-.237-.435h9.051A4.127,4.127,0,0,1,356.858,240.245Zm0,12.368a4.127,4.127,0,0,1-4.123,4.123h-16.49a4.127,4.127,0,0,1-4.123-4.123V240.245a4.127,4.127,0,0,1,4.123-4.123h.3a4.1,4.1,0,0,1,3.687,2.279l.7,1.409a8.2,8.2,0,0,0,7.375,4.558h4.423a4.127,4.127,0,0,1,4.123,4.123Z" transform="translate(-231.611 -160.346)" fill="#fff"/>
    <path id="Path_4852" data-name="Path 4852" d="M352.735,384h-16.49A8.255,8.255,0,0,0,328,392.245v12.368a8.255,8.255,0,0,0,8.245,8.245h16.49a8.255,8.255,0,0,0,8.245-8.245V392.245A8.255,8.255,0,0,0,352.735,384Zm4.123,8.245v1.109a8.191,8.191,0,0,0-4.123-1.109h-4.423a4.1,4.1,0,0,1-3.687-2.279l-.7-1.409c-.074-.149-.155-.293-.237-.435h9.051A4.127,4.127,0,0,1,356.858,392.245Zm0,12.368a4.127,4.127,0,0,1-4.123,4.123h-16.49a4.127,4.127,0,0,1-4.123-4.123V392.245a4.127,4.127,0,0,1,4.123-4.123h.3a4.1,4.1,0,0,1,3.687,2.279l.7,1.409a8.2,8.2,0,0,0,7.375,4.558h4.423a4.127,4.127,0,0,1,4.123,4.123Z" transform="translate(-231.611 -273.181)" fill="#fff"/>
    <path id="Path_4853" data-name="Path 4853" d="M248,280v4.123h6.184v39.164a2.061,2.061,0,0,0,2.061,2.061h8.245v-4.123h-6.184v-37.1h6.184V280Z" transform="translate(-172.224 -195.978)" fill="#fff"/>
  </g>
</svg>
