<svg xmlns="http://www.w3.org/2000/svg" width="129.638" height="129.638" viewBox="0 0 129.638 129.638">
  <g id="it-consulting" transform="translate(0 0)">
    <path id="Path_4859" data-name="Path 4859" d="M29.617,23.92a1.9,1.9,0,1,0-1.9-1.9A1.9,1.9,0,0,0,29.617,23.92Zm-15.192,0a1.9,1.9,0,1,0-1.9-1.9A1.9,1.9,0,0,0,14.426,23.92Zm7.6,0a1.9,1.9,0,1,0-1.9-1.9A1.9,1.9,0,0,0,22.022,23.92ZM21.6,44.037h.035l17.169,0h0a2.6,2.6,0,0,0,1.323-4.835l-2.611-1.545A22.021,22.021,0,1,0,0,22.021,22.257,22.257,0,0,0,21.6,44.037ZM9.229,9.042A18.091,18.091,0,0,1,22.29,3.8,18.223,18.223,0,0,1,34,35.755a2.772,2.772,0,0,0,.41,4.476l.019.011-12.768,0a18.222,18.222,0,0,1-12.43-31.2Zm118.51,116.8h-1.9V97.56a18.772,18.772,0,0,0-11.175-17.15l-10.008-4.289a14.991,14.991,0,0,0,6.425-4.04,15.731,15.731,0,0,0,4.25-10.675,15.107,15.107,0,0,0-3.637-9.824,19.66,19.66,0,0,1-4.615-12.647v-9.1a29.836,29.836,0,0,0-59.672,0v8.8a20.525,20.525,0,0,1-4.933,13.027,15.38,15.38,0,0,0,7.341,24.52l-9.938,4.322A18.71,18.71,0,0,0,28.4,97.788v22.355a1.9,1.9,0,0,0,3.8,0V97.788A14.928,14.928,0,0,1,41.373,84L53.83,78.582V90.012H48.107a5.7,5.7,0,0,0-5.665,6.3l3.13,29.53H1.9a1.9,1.9,0,0,0,0,3.8h125.84a1.9,1.9,0,0,0,0-3.8ZM108.79,54.027a11.355,11.355,0,0,1,2.744,7.379,11.9,11.9,0,0,1-3.216,8.071,11.368,11.368,0,0,1-8.372,3.563H97.471L94.22,71.647a8.666,8.666,0,0,1-5.179-6.834,18.691,18.691,0,0,0,9.851-16.455V34.082c.556.038,1.111.058,1.665.058a24.2,24.2,0,0,0,2.726-.154v4.948a23.462,23.462,0,0,0,5.507,15.093ZM77.705,84.006a70.353,70.353,0,0,1-20.077-2.555V76.93l.549-.239.013-.006,3.388-1.473a12.47,12.47,0,0,0,7.244-8.921,18.613,18.613,0,0,0,5.206.744h6.188a18.613,18.613,0,0,0,5.225-.749,12.464,12.464,0,0,0,7.283,8.852l3.616,1.55.007,0,.268.115v4.273a70.494,70.494,0,0,1-18.909,2.928Zm18.908,1.026v4.98H57.628V85.384a74.223,74.223,0,0,0,18.841,2.431q.651,0,1.3-.011a74.276,74.276,0,0,0,18.842-2.772Zm6.669-54.875a21.092,21.092,0,0,1-15.189-3.842,1.9,1.9,0,0,0-2.326,3,22.944,22.944,0,0,0,9.327,4.238V43.893a13.892,13.892,0,0,1-4.219,5.7,14.561,14.561,0,0,1-3.15,1.98,5.571,5.571,0,0,0-4.956-3.037H78.32a5.567,5.567,0,1,0,0,11.133h4.45a5.576,5.576,0,0,0,5.386-4.159c2.54-.968,6.682-4.421,6.683-4.422A14.9,14.9,0,0,1,80.216,63.236H74.028A14.9,14.9,0,0,1,59.15,48.358V33.679a50.923,50.923,0,0,0,18.131-6.5,51.585,51.585,0,0,0,17.26-16.805,26.022,26.022,0,0,1,8.742,19.782ZM84.538,54.107a1.771,1.771,0,0,1-1.768,1.764h-4.45a1.769,1.769,0,1,1,0-3.537h4.45A1.77,1.77,0,0,1,84.538,54.1ZM51.207,29.834A26.046,26.046,0,0,1,91.517,8.051a47.815,47.815,0,0,1-16.17,15.861A47.218,47.218,0,0,1,57.372,30.1H51.207v-.266ZM43.83,66.391a11.46,11.46,0,0,1,1.567-12.3,24.256,24.256,0,0,0,5.81-15.456V33.9h4.145v14.46a18.692,18.692,0,0,0,9.862,16.46,8.67,8.67,0,0,1-5.15,6.911L57.049,73.04H54.3A11.46,11.46,0,0,1,43.83,66.391ZM109.937,95.91l-3.173,29.93H49.392L46.219,95.91a1.9,1.9,0,0,1,1.888-2.1h59.942a1.9,1.9,0,0,1,1.888,2.1Zm12.1,29.93H110.584l3.13-29.53a5.7,5.7,0,0,0-5.665-6.3h-7.638V78.433l12.736,5.459a14.963,14.963,0,0,1,8.895,13.668ZM78.078,102.609a7.216,7.216,0,1,0,7.216,7.216A7.224,7.224,0,0,0,78.078,102.609Zm0,10.634a3.418,3.418,0,1,1,3.418-3.418A3.422,3.422,0,0,1,78.078,113.243Z" transform="translate(0 0)" fill="#fff"/>
  </g>
</svg>
