<svg xmlns="http://www.w3.org/2000/svg" width="122.883" height="131.66" viewBox="0 0 122.883 131.66">
  <g id="it-outsourcing" transform="translate(-32 -16)">
    <path id="Path_4857" data-name="Path 4857" d="M122.188,147.66a17.441,17.441,0,0,0,12.413-5.142l8.024-8.024h3.48A2.194,2.194,0,0,0,148.3,132.3V119.134h6.583v-4.389H148.3v-4.389h6.583v-4.389H148.3v-4.389h6.583V97.19H148.3V92.8h6.583V88.413H148.3V79.636a2.194,2.194,0,0,0-2.194-2.194h-6.583V70.858h-4.389v6.583h-4.389V70.858h-4.389v6.583h-4.389V70.858h-4.389v6.583H111a2.194,2.194,0,0,0-2.194,2.194v1.117L94.069,72.159A21.818,21.818,0,0,0,97.83,59.887V29.166a8.787,8.787,0,0,0-8.777-8.777H87.872A8.781,8.781,0,0,0,80.275,16H71.5A17.574,17.574,0,0,0,53.943,33.555V59.887A21.818,21.818,0,0,0,57.7,72.159L37.443,83.978A11.008,11.008,0,0,0,32,93.455v52.011a2.194,2.194,0,0,0,2.194,2.194Zm-26.553-4.389V131.234l12.71-9.1a1.3,1.3,0,0,1,1.35-.1l.048.024a1.418,1.418,0,0,1,.761,1.544c-.658,3.248-1.661,8.267-1.661,8.267A2.194,2.194,0,0,0,111,134.494h4.274a8.811,8.811,0,0,0,5.483-1.923l5.641-4.513a1.947,1.947,0,0,1,2.592,2.9l-8.461,8.461a13.079,13.079,0,0,1-9.31,3.856Zm26.332-21.943V96.913a8.81,8.81,0,0,0,6.305-6.305h6.861v30.721Zm9.53,18.087a13.07,13.07,0,0,1-8.657,3.84c.268-.238.533-.481.788-.737l8.024-8.024h4.765ZM113.19,81.83h30.721v48.275h-10a6.318,6.318,0,0,0-1.034-4.042c-.079-.119-.164-.234-.251-.347h4.7a2.194,2.194,0,0,0,2.194-2.194V88.413a2.194,2.194,0,0,0-2.194-2.194H126.356a2.194,2.194,0,0,0-2.194,2.194,4.394,4.394,0,0,1-4.389,4.389A2.194,2.194,0,0,0,117.579,95v28.526a2.194,2.194,0,0,0,2.194,2.194H122.3l-4.284,3.427a4.406,4.406,0,0,1-2.742.962h-1.6c.341-1.7.786-3.915,1.133-5.632a5.805,5.805,0,0,0-1.688-5.339h.071ZM108.8,88.413h-6.583V92.8H108.8V97.19h-6.583v4.389H108.8v4.389h-6.583v4.389H108.8v4.389h-6.583v4.389H105l-12.087,8.65-3.861-.681V103.773a2.194,2.194,0,0,0-2.194-2.194H80.075L96.1,78.426l12.7,7.407ZM86.858,33.555a3.082,3.082,0,0,1,2.194.909l4.389,4.388V59.887a17.555,17.555,0,1,1-35.109,0V38.852l4.389-4.388a3.1,3.1,0,0,1,4.389,0l3.48,3.48a7.492,7.492,0,0,0,10.6,0l3.479-3.48a3.082,3.082,0,0,1,2.194-.909ZM75.887,81.83a21.866,21.866,0,0,0,15.324-6.258l1.091.636L75.887,99.918,59.472,76.208l1.091-.636A21.866,21.866,0,0,0,75.887,81.83Zm0,30.721a2.194,2.194,0,0,0,2.194-2.194v-4.389h6.583v20.361l-17.555-3.1V105.968h6.583v4.389a2.194,2.194,0,0,0,2.194,2.194ZM93.441,29.166v3.48L92.156,31.36a7.454,7.454,0,0,0-3.1-1.869V24.777a4.394,4.394,0,0,1,4.389,4.389ZM71.5,20.389h8.777a4.394,4.394,0,0,1,4.389,4.389v4.714a7.454,7.454,0,0,0-3.1,1.869l-3.48,3.48a3.1,3.1,0,0,1-4.389,0l-3.48-3.48a7.492,7.492,0,0,0-10.6,0L58.37,32.608A13.181,13.181,0,0,1,71.5,20.389ZM36.389,93.455a6.605,6.605,0,0,1,3.266-5.686L55.67,78.426,71.7,101.579H64.915a2.194,2.194,0,0,0-2.194,2.194v18.589a6.571,6.571,0,0,1-4.389-6.2v-5.8H53.943v5.8a10.956,10.956,0,0,0,9.065,10.8l28.239,4.983v11.325H62.721a26.362,26.362,0,0,1-26.332-26.332Zm0,39.293a30.956,30.956,0,0,0,10.524,10.524H36.389Z" transform="translate(0 0)" fill="#fff"/>
    <rect id="Rectangle_398" data-name="Rectangle 398" width="5" height="13" transform="translate(126 102)" fill="#fff"/>
    <rect id="Rectangle_399" data-name="Rectangle 399" width="8" height="4" transform="translate(63 45)" fill="#fff"/>
    <path id="Path_4858" data-name="Path 4858" d="M180.389,172.389a2.2,2.2,0,0,1-2.194,2.194H176v4.389h2.194a6.591,6.591,0,0,0,6.583-6.583V168h-4.389Z" transform="translate(-104.502 -110.308)" fill="#fff"/>
    <circle id="Ellipse_35" data-name="Ellipse 35" cx="2" cy="2" r="2" transform="translate(65 51)" fill="#fff"/>
    <rect id="Rectangle_400" data-name="Rectangle 400" width="9" height="4" transform="translate(80 45)" fill="#fff"/>
    <ellipse id="Ellipse_36" data-name="Ellipse 36" cx="2.5" cy="2" rx="2.5" ry="2" transform="translate(82 51)" fill="#fff"/>
  </g>
</svg>
