<svg xmlns="http://www.w3.org/2000/svg" width="122.882" height="133.361" viewBox="0 0 122.882 133.361">
  <g id="it-support" transform="translate(-20.116)">
    <path id="Path_4860" data-name="Path 4860" d="M238.473,33.232h-1.352a37.718,37.718,0,0,0-3.334-8.045l.961-.961a5.849,5.849,0,0,0,0-8.255l-6.4-6.395a5.835,5.835,0,0,0-8.259-.005l-.96.96A37.584,37.584,0,0,0,211.08,7.19V5.839A5.845,5.845,0,0,0,205.241,0H196.19a5.845,5.845,0,0,0-5.839,5.839V7.19a37.692,37.692,0,0,0-8.052,3.342l-.955-.955a5.836,5.836,0,0,0-8.259-.005l-6.4,6.4a5.849,5.849,0,0,0,0,8.254l.961.961a37.53,37.53,0,0,0-3.337,8.045h-1.357a5.845,5.845,0,0,0-5.839,5.839V48.13a5.845,5.845,0,0,0,5.839,5.839h1.357a37.541,37.541,0,0,0,3.337,8.045l-.961.961a5.849,5.849,0,0,0,0,8.254l6.4,6.4a5.783,5.783,0,0,0,4.132,1.715h0a5.781,5.781,0,0,0,4.127-1.71l.961-.961a37.508,37.508,0,0,0,8.052,3.337v1.356A5.845,5.845,0,0,0,196.19,87.2h9.052a5.845,5.845,0,0,0,5.839-5.839V80.007a37.388,37.388,0,0,0,8.046-3.336l.954.954a5.835,5.835,0,0,0,8.258.007l6.41-6.4a5.849,5.849,0,0,0,0-8.254l-.961-.961a37.731,37.731,0,0,0,3.334-8.045h1.352a5.845,5.845,0,0,0,5.839-5.839V39.071a5.845,5.845,0,0,0-5.838-5.839Zm-32.6,48.13a.638.638,0,0,1-.629.629H196.19a.638.638,0,0,1-.629-.629v-19.8a2.6,2.6,0,0,0-1.7-2.442A17.84,17.84,0,0,1,190,27.593c.22-.151.415-.273.586-.374-.009.339-.033.661-.046.829-.02.264-.035.473-.035.68V41.02a10.777,10.777,0,0,0,10.037,10.728,2.627,2.627,0,0,0,.345,0A10.773,10.773,0,0,0,210.917,41.02V28.727c0-.206-.015-.413-.035-.676-.013-.169-.036-.493-.046-.833.17.1.364.223.583.374a17.842,17.842,0,0,1-3.852,31.527,2.6,2.6,0,0,0-1.7,2.442v19.8ZM239.1,48.131a.646.646,0,0,1-.629.629H235.1a2.6,2.6,0,0,0-2.54,2.03,32.577,32.577,0,0,1-4.246,10.244,2.6,2.6,0,0,0,.36,3.233l2.392,2.392a.64.64,0,0,1,0,.886l-6.415,6.408a.626.626,0,0,1-.881-.006l-2.392-2.392a2.6,2.6,0,0,0-3.236-.358,32.314,32.314,0,0,1-7.061,3.353V63.293a23.047,23.047,0,0,0,3.281-40c-.97-.663-3.92-2.68-6.5-1.195-2.533,1.459-2.281,4.878-2.173,6.338.009.127.019.233.021.293V41.02a5.021,5.021,0,1,1-9.992,0V28.746c0-.078.012-.185.021-.312.109-1.459.363-4.877-2.168-6.336-2.579-1.488-5.533.53-6.5,1.193a23.044,23.044,0,0,0,3.288,40V74.549a32.487,32.487,0,0,1-7.071-3.354,2.605,2.605,0,0,0-3.234.36l-2.4,2.4a.626.626,0,0,1-.881-.005l-6.4-6.4a.64.64,0,0,1,0-.887l2.392-2.392a2.6,2.6,0,0,0,.36-3.233,32.409,32.409,0,0,1-4.245-10.239,2.6,2.6,0,0,0-2.541-2.034h-3.381a.646.646,0,0,1-.629-.629V39.071a.638.638,0,0,1,.629-.629h3.381a2.6,2.6,0,0,0,2.541-2.034,32.4,32.4,0,0,1,4.245-10.239,2.6,2.6,0,0,0-.36-3.233l-2.392-2.392a.64.64,0,0,1,0-.887l6.407-6.407a.626.626,0,0,1,.881.005l2.392,2.392a2.6,2.6,0,0,0,3.234.36,32.558,32.558,0,0,1,10.25-4.253,2.6,2.6,0,0,0,2.031-2.541V5.839a.638.638,0,0,1,.629-.629h9.052a.638.638,0,0,1,.629.629V9.213a2.6,2.6,0,0,0,2.031,2.541,32.427,32.427,0,0,1,10.24,4.252,2.6,2.6,0,0,0,3.236-.358l2.4-2.4a.626.626,0,0,1,.882.007l6.408,6.4a.64.64,0,0,1,0,.887l-2.392,2.392a2.6,2.6,0,0,0-.36,3.233,32.581,32.581,0,0,1,4.246,10.244,2.6,2.6,0,0,0,2.54,2.03h3.374a.638.638,0,0,1,.629.629V48.13Z" transform="translate(-101.313)" fill="#fff"/>
    <path id="Path_4861" data-name="Path 4861" d="M380.62,438.151a2.6,2.6,0,1,0,3.684,3.684l.007-.007a2.6,2.6,0,0,0-3.691-3.676Z" transform="translate(-266.041 -323.463)" fill="#fff"/>
    <path id="Path_4862" data-name="Path 4862" d="M126.645,335.169l-20.679,10.619a9.6,9.6,0,0,0-6.926-2.948H84.872a3.911,3.911,0,0,1-1-.067,7.638,7.638,0,0,1-.769-.676l-.129-.121c-11.463-10.79-21.145-10.107-32.156-5.761a7.494,7.494,0,0,1-3.605.781l-3.2,0a6.927,6.927,0,0,0-6.566-4.746H27.025a6.921,6.921,0,0,0-6.909,6.917V366.51a6.917,6.917,0,0,0,6.909,6.909H37.443a6.927,6.927,0,0,0,6.565-4.74h5.86a2.772,2.772,0,0,1,1.119.17c.219.062.485.137.829.229l26.957,7.212c1.188.321,2.278.637,3.332.942,3.454,1,6.357,1.842,9.383,1.842,3.42,0,7-1.075,11.7-4.209l.068-.047,5.146-3.67a2.6,2.6,0,0,0-3.024-4.241l-5.112,3.645c-6.825,4.54-9.723,3.7-16.71,1.676-1.076-.312-2.189-.634-3.429-.969l-26.959-7.212c-.316-.085-.563-.155-.767-.212a7.256,7.256,0,0,0-2.532-.365H44.359V342.21h2.815l.112,0,.148-.006a12.21,12.21,0,0,0,5.3-1.14c9.671-3.816,17.136-4.27,26.677,4.712l.129.121a6.306,6.306,0,0,0,5.337,2.156H99.041a4.426,4.426,0,0,1,3.869,2.283c.008.015.017.029.026.045a4.417,4.417,0,0,1-3.894,6.514H76.079a2.6,2.6,0,0,0,0,5.209H99.041a9.62,9.62,0,0,0,9.4-11.726L129.025,339.8c1.948-1,4.612-.893,5.935,1.253a4.386,4.386,0,0,1-1.5,5.848l-9.03,6.431a2.6,2.6,0,1,0,3.022,4.243l9.031-6.432a9.534,9.534,0,0,0,2.906-12.827c-2.587-4.2-8.067-5.554-12.747-3.152ZM39.15,366.51a1.726,1.726,0,0,1-1.707,1.7H27.025a1.723,1.723,0,0,1-1.7-1.7V339.17a1.706,1.706,0,0,1,1.7-1.707H37.443a1.73,1.73,0,0,1,1.707,1.707Z" transform="translate(0 -245.713)" fill="#fff"/>
  </g>
</svg>
