<svg id="managed-it-icon" xmlns="http://www.w3.org/2000/svg" width="122.883" height="122.883" viewBox="0 0 122.883 122.883">
  <path id="Path_4854" data-name="Path 4854" d="M120.9,33.694H114a33.2,33.2,0,0,0-3.974-9.622L114.9,19.2a1.981,1.981,0,0,0,0-2.8l-8.41-8.41a2.04,2.04,0,0,0-2.8,0l-4.874,4.874a33.3,33.3,0,0,0-9.622-3.974v-6.9A1.981,1.981,0,0,0,87.207,0H75.315a1.981,1.981,0,0,0-1.982,1.982v6.9a33.216,33.216,0,0,0-9.621,3.974L58.839,7.985a1.981,1.981,0,0,0-2.8,0l-8.41,8.41a1.981,1.981,0,0,0,0,2.8L52.5,24.071a33.205,33.205,0,0,0-3.974,9.622h-6.9a1.981,1.981,0,0,0-1.982,1.982V39.64H9.91a5.954,5.954,0,0,0-5.946,5.946v57.477H1.982A1.981,1.981,0,0,0,0,105.045v7.928a9.922,9.922,0,0,0,9.91,9.91H97.117a9.922,9.922,0,0,0,9.91-9.91v-7.928a1.981,1.981,0,0,0-1.982-1.982h-1.982V74.636l.62.622a1.981,1.981,0,0,0,2.8,0l8.41-8.41a1.981,1.981,0,0,0,0-2.8l-4.874-4.874A33.205,33.205,0,0,0,114,49.55h6.9a1.981,1.981,0,0,0,1.982-1.982V35.676a1.981,1.981,0,0,0-1.982-1.982Zm-17.838,79.279a5.954,5.954,0,0,1-5.946,5.946H9.91a5.954,5.954,0,0,1-5.946-5.946v-5.946H27.748v1.982a5.954,5.954,0,0,0,5.946,5.946h39.64a5.954,5.954,0,0,0,5.946-5.946v-1.982h23.784Zm-71.351-5.946h43.6v1.982a1.985,1.985,0,0,1-1.982,1.982H33.694a1.985,1.985,0,0,1-1.982-1.982ZM99.1,103.063H7.928V45.586A1.985,1.985,0,0,1,9.91,43.6H39.64v3.964a1.981,1.981,0,0,0,1.982,1.982h6.9A33.2,33.2,0,0,0,52.5,59.172l-4.874,4.874a1.981,1.981,0,0,0,0,2.8l8.41,8.41a2.04,2.04,0,0,0,2.8,0l4.874-4.874a33.207,33.207,0,0,0,9.621,3.974v6.9a1.981,1.981,0,0,0,1.982,1.982H87.205a1.982,1.982,0,0,0,1.982-1.982v-6.9a33.216,33.216,0,0,0,9.621-3.974l.291.287Zm19.82-57.477H112.4A1.981,1.981,0,0,0,110.45,47.2a29.425,29.425,0,0,1-4.6,11.129,1.98,1.98,0,0,0,.235,2.517l4.6,4.6-5.607,5.607-4.6-4.6a1.988,1.988,0,0,0-2.517-.237,29.417,29.417,0,0,1-11.129,4.6,1.981,1.981,0,0,0-1.613,1.946v6.523H77.3V72.757a1.981,1.981,0,0,0-1.611-1.946,29.424,29.424,0,0,1-11.129-4.6,1.986,1.986,0,0,0-2.517.237l-4.6,4.6-5.607-5.607,4.6-4.6a1.98,1.98,0,0,0,.235-2.517,29.394,29.394,0,0,1-4.6-11.129,1.985,1.985,0,0,0-1.948-1.611H43.6V37.658h6.523a1.981,1.981,0,0,0,1.946-1.611,29.425,29.425,0,0,1,4.6-11.129,1.98,1.98,0,0,0-.235-2.517l-4.6-4.6,5.607-5.607,4.6,4.6a1.983,1.983,0,0,0,2.517.237,29.417,29.417,0,0,1,11.129-4.6A1.981,1.981,0,0,0,77.3,10.487V3.964h7.928v6.523a1.981,1.981,0,0,0,1.611,1.946,29.424,29.424,0,0,1,11.129,4.6,1.978,1.978,0,0,0,2.517-.237l4.6-4.6,5.607,5.607-4.6,4.6a1.98,1.98,0,0,0-.235,2.517,29.394,29.394,0,0,1,4.6,11.129,1.985,1.985,0,0,0,1.948,1.611h6.523Zm0,0" fill="#fff"/>
  <path id="Path_4855" data-name="Path 4855" d="M249.766,64a25.766,25.766,0,1,0,25.766,25.766A25.8,25.8,0,0,0,249.766,64Zm-1.982,47.467v-10.25a1.982,1.982,0,0,0-1.3-1.859,10.393,10.393,0,0,1-6.632-9.8,10.6,10.6,0,0,1,3.964-8.325v8.325a2,2,0,0,0,.551,1.373l3.964,4.128a2.043,2.043,0,0,0,2.861,0l3.964-4.128a1.989,1.989,0,0,0,.553-1.373V81.229a10.6,10.6,0,0,1,3.964,8.325,10.393,10.393,0,0,1-6.632,9.8,1.982,1.982,0,0,0-1.3,1.859v10.25c-.654.059-1.312.1-1.982.1s-1.328-.042-1.982-.1Zm7.928-.743v-8.2a14.559,14.559,0,0,0-1.3-26.507,1.983,1.983,0,0,0-2.668,1.859V88.755l-1.982,2.062-1.982-2.062V77.874a1.983,1.983,0,0,0-2.668-1.859,14.559,14.559,0,0,0-1.3,26.507v8.2a21.8,21.8,0,1,1,11.892,0Zm0,0" transform="translate(-168.505 -48.144)" fill="#fff"/>
  <path id="Path_4856" data-name="Path 4856" d="M127.279,239.568H51.964v-43.6h19.82V192h-21.8A1.981,1.981,0,0,0,48,193.982V241.55a1.981,1.981,0,0,0,1.982,1.982h79.279a1.981,1.981,0,0,0,1.982-1.982v-9.91h-3.964Zm0,0" transform="translate(-36.108 -144.432)" fill="#fff"/>
</svg>
