<svg xmlns="http://www.w3.org/2000/svg" width="128.882" height="134.19" viewBox="0 0 128.882 134.19">
  <g id="ui_ux" data-name="ui/ux" transform="translate(-10.125)">
    <path id="Path_4840" data-name="Path 4840" d="M167.657,31.319a7.351,7.351,0,0,0-7.343-7.343H125.347V5.627A5.634,5.634,0,0,0,119.72,0h-49.8a5.634,5.634,0,0,0-5.627,5.627V58.094H50.913a1.963,1.963,0,0,0,0,3.926H64.29V66.2H50.913a1.963,1.963,0,1,0,0,3.926H64.29v.767a1.963,1.963,0,1,0,3.926,0v-.767H78.8a1.963,1.963,0,1,0,0-3.926H68.216V62.02H78.8a1.963,1.963,0,0,0,0-3.926H68.216V5.627a1.7,1.7,0,0,1,1.7-1.7h49.8a1.7,1.7,0,0,1,1.7,1.7V23.977H116.51V11.5a3.02,3.02,0,0,0-3.01-3.01H76.137a3.02,3.02,0,0,0-3.01,3.01V38.137a3.022,3.022,0,0,0,3.01,3.01H98a1.963,1.963,0,0,0,0-3.926H81.121l13.7-9.975L106.6,35.824v51.2H69.917a1.7,1.7,0,0,1-1.7-1.7V80.577a1.963,1.963,0,1,0-3.926,0v4.747a5.634,5.634,0,0,0,5.627,5.627H106.6v35.9a7.351,7.351,0,0,0,7.343,7.343h46.372a7.351,7.351,0,0,0,7.343-7.343V82.264a1.963,1.963,0,1,0-3.926,0v28.061H110.525V43.655h53.206V72.165a1.963,1.963,0,1,0,3.926,0ZM108.516,12.414l-13.7,9.975-13.7-9.975ZM77.053,35.326V14.309L91.484,24.818Zm35.53-21.017v9.8a7.355,7.355,0,0,0-5.976,6.87l-8.455-6.157Zm51.147,99.942v12.6a3.421,3.421,0,0,1-3.417,3.417H113.942a3.421,3.421,0,0,1-3.417-3.417v-12.6ZM110.525,39.729v-8.41a3.421,3.421,0,0,1,3.417-3.417h46.372a3.421,3.421,0,0,1,3.417,3.417v8.41Z" transform="translate(-28.649)" fill="#fff"/>
    <circle id="Ellipse_24" data-name="Ellipse 24" cx="3.524" cy="3.524" r="3.524" transform="translate(104.955 119.135)" fill="#fff"/>
    <path id="Path_4841" data-name="Path 4841" d="M364.74,28.324h21.024a1.963,1.963,0,0,0,0-3.926H364.74a1.963,1.963,0,0,0,0,3.926Z" transform="translate(-260.225 -18.004)" fill="#fff"/>
    <path id="Path_4842" data-name="Path 4842" d="M364.74,59.869h7.487a1.963,1.963,0,0,0,0-3.926H364.74a1.963,1.963,0,0,0,0,3.926Z" transform="translate(-260.225 -41.281)" fill="#fff"/>
    <path id="Path_4843" data-name="Path 4843" d="M14.685,156.218,18.1,152.27a1.963,1.963,0,0,0-2.968-2.57L10.6,154.933a1.963,1.963,0,0,0,0,2.57l4.532,5.233a1.963,1.963,0,0,0,2.968-2.57Z" transform="translate(0 -109.965)" fill="#fff"/>
    <path id="Path_4844" data-name="Path 4844" d="M59.922,162.934a1.964,1.964,0,0,0,2.769-.2l4.532-5.233a1.963,1.963,0,0,0,0-2.57L62.691,149.7a1.963,1.963,0,0,0-2.968,2.57l3.419,3.947-3.419,3.948a1.964,1.964,0,0,0,.2,2.769Z" transform="translate(-36.246 -109.964)" fill="#fff"/>
    <path id="Path_4845" data-name="Path 4845" d="M346.338,340.457a2.342,2.342,0,0,1,1.779.837,6.1,6.1,0,0,0,4.333,1.781,1.963,1.963,0,1,0,0-3.926,2.341,2.341,0,0,1-1.779-.837,6.162,6.162,0,0,0-8.666,0,2.31,2.31,0,0,1-3.558,0,6.161,6.161,0,0,0-8.665,0,2.309,2.309,0,0,1-3.557,0,6.094,6.094,0,0,0-4.332-1.781,1.963,1.963,0,1,0,0,3.926,2.341,2.341,0,0,1,1.779.837,6.161,6.161,0,0,0,8.665,0,2.309,2.309,0,0,1,3.557,0,6.162,6.162,0,0,0,8.665,0A2.341,2.341,0,0,1,346.338,340.457Z" transform="translate(-228.608 -248.33)" fill="#fff"/>
    <path id="Path_4846" data-name="Path 4846" d="M338.448,371.038a6.161,6.161,0,0,0-8.665,0,2.309,2.309,0,0,1-3.557,0,6.094,6.094,0,0,0-4.332-1.781,1.963,1.963,0,0,0,0,3.926,2.341,2.341,0,0,1,1.779.837,6.161,6.161,0,0,0,8.665,0,2.309,2.309,0,0,1,3.557,0,6.094,6.094,0,0,0,4.332,1.781,1.963,1.963,0,0,0,0-3.926A2.341,2.341,0,0,1,338.448,371.038Z" transform="translate(-228.608 -272.479)" fill="#fff"/>
    <path id="Path_4847" data-name="Path 4847" d="M195.914,225.583a1.963,1.963,0,1,0,0-3.926H186.1a1.963,1.963,0,1,0,0,3.926Z" transform="translate(-128.407 -163.563)" fill="#fff"/>
    <path id="Path_4848" data-name="Path 4848" d="M328.031,188.874a16.513,16.513,0,0,0-14.6,8.826l-6.891.729a1.047,1.047,0,0,0-.567,1.839l4.891,4.151-4.891,4.151a1.047,1.047,0,0,0,.567,1.839l5.994.634a16.5,16.5,0,1,0,15.5-22.169Zm0,29.068A12.568,12.568,0,1,1,340.6,205.374,12.582,12.582,0,0,1,328.031,217.942Z" transform="translate(-218.036 -139.372)" fill="#fff"/>
    <circle id="Ellipse_25" data-name="Ellipse 25" cx="2.981" cy="2.981" r="2.981" transform="translate(102.334 62.039) rotate(-13.3)" fill="#fff"/>
  </g>
</svg>
